<svg width="215" height="262" viewBox="0 0 215 262" fill="none" xmlns="http://www.w3.org/2000/svg">
<path d="M46.916 69.2003C64.9685 44.431 89.0567 29.4994 89.0567 29.4994L102.808 20.1841L127.53 28.7484C127.53 28.7484 88.2628 35.3423 46.916 69.2003Z" fill="#2B57A0"/>
<path d="M76.8607 31.0505C105.241 26.6374 127.532 28.7469 127.532 28.7469L118.391 15.5264C110.177 12.7226 93.8196 12.7779 93.8196 12.7779L76.1953 17.9647L76.8607 31.0505Z" fill="#C22634"/>
<path d="M111.46 0C90.3212 4.59762 78.8085 9.4621 67.4707 17.6559L76.86 31.051C87.0116 18.3884 100.203 5.97164 111.46 0Z" fill="url(#paint0_linear)"/>
<path d="M35.0244 79.2157C93.609 31.6475 148.142 35.3668 148.142 35.3668C167.957 35.3668 173.873 38.676 173.873 38.676C173.873 38.676 167.367 38.1637 160.975 38.1637C160.975 38.1637 137.382 37.4448 106.806 50.5679L79.0816 59.2179L50.6921 74.5216L35.0244 79.2157Z" fill="url(#paint1_linear)"/>
<path d="M43.5957 89.1616C78.0251 62.6982 101.635 65.4572 101.635 65.4572C118.179 65.4572 141.44 70.9497 154.97 70.9497C164.991 70.9497 166.334 68.1833 170.636 62.6848C173.88 58.3783 177.638 50.4039 177.638 44.3354C174.937 50.2775 171.131 53.0832 158.631 53.0832C143.725 53.0832 135.326 50.3535 106.807 50.5696L79.5262 58.9978L46.2572 77.8502L43.5957 89.1616Z" fill="url(#paint2_linear)"/>
<path d="M35.061 79.0669C73.8548 49.7213 106.811 50.5665 106.811 50.5665C106.811 50.5665 75.9173 63.0691 43.6001 89.1584L35.061 79.0669Z" fill="url(#paint3_linear)"/>
<path d="M47.145 88.9379C62.2463 79.1337 79.9572 74.8662 96.7422 74.8662C114.321 74.8662 129.874 81.1752 129.874 81.1752L103.924 87.829L96.8266 87.1636C84.3917 83.92 65.3118 82.0577 47.145 88.9379Z" fill="url(#paint4_linear)"/>
<path d="M70.875 100.251C99.3824 80.0602 129.872 81.1771 129.872 81.1771C129.872 81.1771 106.268 88.9413 89.2838 112.228L81.7429 113.337L73.5365 103.578L70.875 100.251Z" fill="#2BABDA"/>
<path d="M70.875 100.251C83.1584 128.692 114.346 142.835 114.346 142.835C116.219 143.853 116.62 143.42 117.452 142.835C117.452 142.835 121.15 140.59 129.023 128.763C129.023 128.763 89.8309 115.195 70.875 100.251Z" fill="#2B579E"/>
<path d="M10.2649 159.753C3.87522 159.753 0 161.257 0 161.257L3.06352 165.499L6.79241 164.522C6.79241 164.522 3.40482 172.358 0.970344 183.416C0.970344 183.416 3.68038 183.86 6.84786 183.86C14.0749 183.86 20.8672 181.487 22.8308 175.307L21.403 171.197C21.403 171.197 20.2193 169.956 19.0534 169.595C22.097 167.62 22.2763 165.305 22.2763 165.305L21.0703 161.424C21.0703 161.424 16.7547 159.753 10.2649 159.753ZM11.8243 163.87C14.7325 163.87 19.0395 164.404 19.0395 164.404C15.2397 167.497 11.2768 168.202 11.2768 168.202L12.559 172.021C17.5273 172.032 20.0584 174.108 20.0584 174.108C16.3711 179.236 7.4162 178.821 7.4162 178.821C9.64698 170.169 11.8243 163.87 11.8243 163.87Z" fill="black"/>
<path d="M26.561 183.932L23.7192 179.857C26.5921 169.149 30.2165 161.495 30.2165 161.495C35.7004 161.195 41.6259 161.437 41.6259 161.437L42.8218 165.436C42.8218 165.436 37.3175 165.128 33.1767 165.965C33.1767 165.965 32.4507 167.797 31.5887 170.317C36.1251 169.882 39.6067 170.278 39.6067 170.278L40.9986 173.983C33.7953 174.281 30.1185 175.061 30.1185 175.061L29.0402 179.629C29.0402 179.629 32.4842 180.078 38.9402 179.06L40.3517 183.197C40.3517 183.197 33.7632 183.932 26.561 183.932Z" fill="black"/>
<path d="M41.728 183.89H47.2451C50.1908 170.598 53.795 161.461 53.795 161.461H49.165C49.165 161.461 45.2804 169.188 41.728 183.89Z" fill="black"/>
<path d="M42.1484 190.672L47.6004 192.681C48.2876 192.997 48.6912 192.892 49.2577 192.724C55.1994 190.951 56.2686 186.401 58.1477 180.417L63.3465 161.494H57.7185L52.4233 179.535C50.4501 186.269 48.4993 191.923 42.1484 190.672Z" fill="black"/>
<path d="M61.1738 183.892H66.6909C69.6366 170.6 73.2408 161.463 73.2408 161.463H68.6108C68.6108 161.463 64.7262 169.19 61.1738 183.892Z" fill="black"/>
<path d="M70.7764 183.877C73.1306 172.486 78.1688 161.473 78.1688 161.473H82.6914C82.6914 161.473 83.2551 168.285 85.722 175.47C87.9327 167.622 90.8526 161.48 90.8526 161.48H95.4687C95.4687 161.48 91.659 170.553 88.9296 183.897H83.3731C83.3731 183.897 80.7785 178.177 79.6015 170.693C79.6015 170.693 77.6247 177.338 76.1865 183.881L70.7764 183.877Z" fill="black"/>
<path d="M98.5404 183.95C96.3447 183.95 95.4919 183.362 95.4919 183.362L93.4923 180.48C93.4923 180.48 92.9238 179.519 92.9238 177.03C92.9238 171.367 97.9136 161.138 113.082 161.138L114.69 165.865C105.562 165.001 96.1585 172.339 96.1585 177.814C96.1585 179.114 97.0944 179.775 98.6874 179.775C103.49 179.775 107.989 175.324 108.881 173.658L113.939 175.56C113.476 180.089 111.05 184.234 106.403 187.052C105.786 187.478 105.247 187.671 104.257 187.244L100.884 185.881C104.318 185.37 106.613 181.1 106.613 181.1C106.613 181.1 102.341 183.95 98.5404 183.95Z" fill="black"/>
<path d="M128.105 185.4L124.196 179.759C135.577 172.198 139.121 165.552 139.121 165.552C139.121 165.552 133.529 165.859 128.436 168.669L126.77 163.886C126.77 163.886 131.037 161.023 138.376 161.023C140.837 161.023 142.492 161.494 142.492 161.494L144.022 165.983C142.394 170.132 136.572 177.099 136.572 177.099C139.297 176.452 144.374 177.028 145.962 179.02L148.135 179.864L147.958 181.514L146.746 181.372C146.746 181.372 144.696 181.235 143.453 181.235C134.825 181.235 128.105 185.4 128.105 185.4Z" fill="black"/>
<path d="M168.562 184.628L164.667 179.028C176.19 170.994 179.402 164.417 179.402 164.417C174.01 164.516 168.978 167.661 168.978 167.661L167.259 162.823C167.259 162.823 171.456 160.148 178.113 160.148C180.198 160.148 182.646 160.578 182.646 160.578L184.199 165.346C180.961 171.514 177.101 175.965 177.101 175.965C182.5 175.468 185.621 177.214 185.621 177.214L186.936 178.661C196.322 171.845 199.418 166.33 199.418 166.33C199.418 166.33 194.114 166.333 189.12 168.895L187.442 164.168C187.442 164.168 191.659 161.59 198.712 161.59C201.694 161.59 203.134 162.075 203.134 162.075L204.728 166.719C204.728 166.719 202.957 170.534 197.671 176.868C197.671 176.868 199.848 176.658 201.623 176.658C207.899 176.658 208.736 177.952 208.736 177.952L215 182.549C215 182.549 211.652 181.052 206.142 181.052C206.142 181.052 198.152 180.644 188.32 185.885L184.478 180.141C184.478 180.141 175.872 180.159 168.562 184.628Z" fill="black"/>
<path d="M60.8427 200.054C49.2123 200.054 39.7441 209.522 39.7441 221.153C39.7441 232.783 49.2123 242.251 60.8427 242.251C72.4731 242.251 81.9412 232.783 81.9412 221.153C81.9412 209.522 72.4731 200.054 60.8427 200.054ZM60.8427 203.766C70.4671 203.766 78.2294 211.528 78.2294 221.153C78.2294 230.777 70.4671 238.539 60.8427 238.539C51.2183 238.539 43.4559 230.777 43.4559 221.153C43.4559 211.528 51.2183 203.766 60.8427 203.766Z" fill="#0885C2"/>
<path d="M106.555 200.052C94.9242 200.052 85.4561 209.52 85.4561 221.151C85.4561 232.781 94.9242 242.249 106.555 242.249C118.185 242.249 127.653 232.781 127.653 221.151C127.653 209.52 118.185 200.052 106.555 200.052ZM106.555 203.764C116.179 203.764 123.941 211.526 123.941 221.151C123.941 230.775 116.179 238.538 106.555 238.538C96.9302 238.538 89.1678 230.775 89.1678 221.151C89.1678 211.526 96.9302 203.764 106.555 203.764Z" fill="black"/>
<path d="M152.275 200.054C140.645 200.054 131.177 209.522 131.177 221.153C131.177 232.783 140.645 242.251 152.275 242.251C163.906 242.251 173.374 232.783 173.374 221.153C173.374 209.522 163.906 200.054 152.275 200.054ZM152.275 203.766C161.9 203.766 169.662 211.528 169.662 221.153C169.662 230.777 161.9 238.539 152.275 238.539C142.651 238.539 134.889 230.777 134.889 221.153C134.889 211.528 142.651 203.766 152.275 203.766Z" fill="#ED334E"/>
<path d="M83.6991 219.589C72.0687 219.589 62.6006 229.057 62.6006 240.688C62.6006 252.318 72.0687 261.786 83.6991 261.786C95.3295 261.786 104.798 252.318 104.798 240.688C104.798 229.057 95.3295 219.589 83.6991 219.589ZM83.6991 223.301C93.3235 223.301 101.086 231.063 101.086 240.688C101.086 250.312 93.3235 258.075 83.6991 258.075C74.0747 258.075 66.3124 250.312 66.3124 240.688C66.3124 231.063 74.0747 223.301 83.6991 223.301Z" fill="#FBB132"/>
<path d="M129.411 219.589C117.781 219.589 108.312 229.057 108.312 240.688C108.312 252.318 117.781 261.786 129.411 261.786C141.041 261.786 150.51 252.318 150.51 240.688C150.51 229.057 141.041 219.589 129.411 219.589ZM129.411 223.301C139.035 223.301 146.798 231.063 146.798 240.688C146.798 250.312 139.035 258.075 129.411 258.075C119.787 258.075 112.024 250.312 112.024 240.688C112.024 231.063 119.787 223.301 129.411 223.301Z" fill="#1C8B3C"/>
<path d="M77.7222 208.492L74.7529 210.72C79.3943 216.908 79.3943 225.395 74.7529 231.583L77.7222 233.811C83.3435 226.316 83.3435 215.987 77.7222 208.492Z" fill="#0885C2"/>
<path d="M123.436 208.492L120.466 210.72C125.108 216.908 125.108 225.395 120.466 231.583L123.436 233.811C129.057 226.316 129.057 215.987 123.436 208.492ZM96.1255 235.061L93.8979 238.03C97.5498 240.769 101.992 242.25 106.557 242.25V238.538C102.795 238.538 99.1353 237.318 96.1255 235.061Z" fill="black"/>
<path d="M141.833 235.056L139.605 238.025C143.257 240.764 147.7 242.245 152.265 242.245V238.533C148.503 238.533 144.843 237.313 141.833 235.056Z" fill="#ED334E"/>
<path d="M158.156 161.319C152.217 163.128 145.333 169.22 145.333 175.763C145.333 177.468 145.687 180.403 148.73 183.692L154.136 185.224C160.565 183.998 166.362 177.379 166.362 170.412C166.362 165.671 163.16 163.01 163.16 163.01L158.156 161.319ZM159.764 164.382C159.764 164.382 161.095 166.945 161.095 170.301C161.095 178.216 152.084 182.084 152.084 182.084C152.084 182.084 150.532 179.479 150.532 176.124C150.532 168.313 159.764 164.382 159.764 164.382Z" fill="black"/>
<defs>
<linearGradient id="paint0_linear" x1="67.0458" y1="17.6059" x2="111.272" y2="-0.116082" gradientUnits="userSpaceOnUse">
<stop stop-color="#2B579E"/>
<stop offset="1" stop-color="#21558F"/>
</linearGradient>
<linearGradient id="paint1_linear" x1="35.0559" y1="61.5962" x2="173.987" y2="61.5962" gradientUnits="userSpaceOnUse">
<stop stop-color="#FFC606"/>
<stop offset="0.2" stop-color="#FFC606"/>
<stop offset="0.4" stop-color="#F9BA17"/>
<stop offset="0.6" stop-color="#DD812A"/>
<stop offset="0.8" stop-color="#C32F36"/>
<stop offset="1" stop-color="#B22731"/>
</linearGradient>
<linearGradient id="paint2_linear" x1="44.0393" y1="82.0642" x2="178.011" y2="82.0642" gradientUnits="userSpaceOnUse">
<stop stop-color="#2762A8"/>
<stop offset="0.2" stop-color="#0176BC"/>
<stop offset="0.4" stop-color="#0195D5"/>
<stop offset="0.6" stop-color="#3AB3E8"/>
<stop offset="0.8" stop-color="#7DCBF1"/>
<stop offset="1" stop-color="#93E0FA"/>
</linearGradient>
<linearGradient id="paint3_linear" x1="35.1719" y1="56.0004" x2="106.589" y2="55.5568" gradientUnits="userSpaceOnUse">
<stop stop-color="#275AA9"/>
<stop offset="0.2" stop-color="#2767AF"/>
<stop offset="0.4" stop-color="#1279BC"/>
<stop offset="0.6" stop-color="#1090CA"/>
<stop offset="0.8" stop-color="#45A6D9"/>
<stop offset="1" stop-color="#5ABAEA"/>
</linearGradient>
<linearGradient id="paint4_linear" x1="47.0341" y1="88.4943" x2="129.542" y2="88.4943" gradientUnits="userSpaceOnUse">
<stop stop-color="#FFC61C"/>
<stop offset="0.2" stop-color="#EBCC33"/>
<stop offset="0.4" stop-color="#C8CA65"/>
<stop offset="0.6" stop-color="#97CA8F"/>
<stop offset="0.8" stop-color="#6DCAD9"/>
<stop offset="1" stop-color="#60CCF3"/>
</linearGradient>
</defs>
</svg>
